<svg width="3460" height="2114" viewBox="0 0 3460 2114" fill="none" xmlns="http://www.w3.org/2000/svg">
<path d="M696.025 1762.63H1603.67L1584.78 1841.79C1568.98 1921.13 1532.9 1986.39 1476.56 2037.55C1420.22 2088.52 1355.12 2114 1281.43 2114H627.659C539.883 2114 458.376 2096.05 383.054 2059.94C307.903 2023.65 241.341 1972.97 183.454 1907.81C125.48 1842.75 80.39 1767.94 48.0966 1683.48C15.9751 1598.82 0 1507.21 0 1408.56V705.439C0 606.882 15.9751 515.372 48.0966 430.909C80.39 346.252 125.48 271.345 183.454 206.187C241.341 140.837 307.903 90.1587 383.054 54.0566C458.376 18.0511 539.883 0 627.659 0H1603.67L1584.78 81.8572C1568.98 161.205 1532.9 225.879 1476.56 276.075C1420.22 326.27 1355.12 351.368 1281.43 351.368H698.43C627.831 351.368 563.158 370.867 504.326 409.672C445.408 448.284 398.685 500.699 364.159 566.822C329.804 632.752 312.627 705.342 312.627 784.593V1331.72C312.627 1411.07 329.804 1483.37 364.159 1548.72C398.685 1613.88 444.978 1665.91 502.952 1704.71C561.097 1743.33 625.426 1762.63 696.025 1762.63Z" fill="black"/>
<path d="M3460 0L3443.51 81.8572C3427.71 161.205 3391.12 225.879 3333.92 276.075C3276.89 326.27 3212.3 351.368 3140.16 351.368H3050.84C2984.88 351.368 2929.05 377.431 2883.53 429.364C2838.18 481.393 2815.51 543.462 2815.51 615.473V1744.1C2815.51 1828.56 2792.66 1903.47 2747.14 1968.82C2701.79 2033.98 2643.82 2076.16 2573.31 2095.47L2500.48 2114V547.13C2500.48 446.546 2522.46 354.843 2566.44 272.214C2610.41 189.391 2669.16 123.365 2742.68 74.1348C2816.37 24.7116 2898.73 0 2989.69 0H3460ZM2601.82 0L2585.33 81.8572C2571.07 154.254 2538.95 215.068 2488.79 264.491C2438.64 313.721 2381.35 342.68 2317.02 351.368C2306.2 351.368 2294.52 351.368 2281.98 351.368H1856.33L1872.82 272.214C1888.36 198.079 1920.91 136.879 1970.38 88.4211C2019.85 40.0598 2076.63 11.487 2140.78 2.70283C2153.32 0.965305 2165.17 0 2176.17 0H2601.82Z" fill="#114189"/>
</svg>
